%TF.GenerationSoftware,KiCad,Pcbnew,7.0.5-1.fc38*%
%TF.CreationDate,2023-06-26T00:30:19+03:00*%
%TF.ProjectId,stm32,73746d33-322e-46b6-9963-61645f706362,1.0*%
%TF.SameCoordinates,Original*%
%TF.FileFunction,Legend,Top*%
%TF.FilePolarity,Positive*%
%FSLAX46Y46*%
G04 Gerber Fmt 4.6, Leading zero omitted, Abs format (unit mm)*
G04 Created by KiCad (PCBNEW 7.0.5-1.fc38) date 2023-06-26 00:30:19*
%MOMM*%
%LPD*%
G01*
G04 APERTURE LIST*
%ADD10C,0.150000*%
%ADD11C,0.120000*%
G04 APERTURE END LIST*
D10*
X144862255Y-65327319D02*
X145052731Y-65327319D01*
X145052731Y-65327319D02*
X145147969Y-65374938D01*
X145147969Y-65374938D02*
X145243207Y-65470176D01*
X145243207Y-65470176D02*
X145290826Y-65660652D01*
X145290826Y-65660652D02*
X145290826Y-65993985D01*
X145290826Y-65993985D02*
X145243207Y-66184461D01*
X145243207Y-66184461D02*
X145147969Y-66279700D01*
X145147969Y-66279700D02*
X145052731Y-66327319D01*
X145052731Y-66327319D02*
X144862255Y-66327319D01*
X144862255Y-66327319D02*
X144767017Y-66279700D01*
X144767017Y-66279700D02*
X144671779Y-66184461D01*
X144671779Y-66184461D02*
X144624160Y-65993985D01*
X144624160Y-65993985D02*
X144624160Y-65660652D01*
X144624160Y-65660652D02*
X144671779Y-65470176D01*
X144671779Y-65470176D02*
X144767017Y-65374938D01*
X144767017Y-65374938D02*
X144862255Y-65327319D01*
X145719398Y-66327319D02*
X145719398Y-65327319D01*
X145719398Y-65327319D02*
X146290826Y-66327319D01*
X146290826Y-66327319D02*
X146290826Y-65327319D01*
X145736779Y-51269819D02*
X145736779Y-52079342D01*
X145736779Y-52079342D02*
X145784398Y-52174580D01*
X145784398Y-52174580D02*
X145832017Y-52222200D01*
X145832017Y-52222200D02*
X145927255Y-52269819D01*
X145927255Y-52269819D02*
X146117731Y-52269819D01*
X146117731Y-52269819D02*
X146212969Y-52222200D01*
X146212969Y-52222200D02*
X146260588Y-52174580D01*
X146260588Y-52174580D02*
X146308207Y-52079342D01*
X146308207Y-52079342D02*
X146308207Y-51269819D01*
X146736779Y-52222200D02*
X146879636Y-52269819D01*
X146879636Y-52269819D02*
X147117731Y-52269819D01*
X147117731Y-52269819D02*
X147212969Y-52222200D01*
X147212969Y-52222200D02*
X147260588Y-52174580D01*
X147260588Y-52174580D02*
X147308207Y-52079342D01*
X147308207Y-52079342D02*
X147308207Y-51984104D01*
X147308207Y-51984104D02*
X147260588Y-51888866D01*
X147260588Y-51888866D02*
X147212969Y-51841247D01*
X147212969Y-51841247D02*
X147117731Y-51793628D01*
X147117731Y-51793628D02*
X146927255Y-51746009D01*
X146927255Y-51746009D02*
X146832017Y-51698390D01*
X146832017Y-51698390D02*
X146784398Y-51650771D01*
X146784398Y-51650771D02*
X146736779Y-51555533D01*
X146736779Y-51555533D02*
X146736779Y-51460295D01*
X146736779Y-51460295D02*
X146784398Y-51365057D01*
X146784398Y-51365057D02*
X146832017Y-51317438D01*
X146832017Y-51317438D02*
X146927255Y-51269819D01*
X146927255Y-51269819D02*
X147165350Y-51269819D01*
X147165350Y-51269819D02*
X147308207Y-51317438D01*
X148070112Y-51746009D02*
X148212969Y-51793628D01*
X148212969Y-51793628D02*
X148260588Y-51841247D01*
X148260588Y-51841247D02*
X148308207Y-51936485D01*
X148308207Y-51936485D02*
X148308207Y-52079342D01*
X148308207Y-52079342D02*
X148260588Y-52174580D01*
X148260588Y-52174580D02*
X148212969Y-52222200D01*
X148212969Y-52222200D02*
X148117731Y-52269819D01*
X148117731Y-52269819D02*
X147736779Y-52269819D01*
X147736779Y-52269819D02*
X147736779Y-51269819D01*
X147736779Y-51269819D02*
X148070112Y-51269819D01*
X148070112Y-51269819D02*
X148165350Y-51317438D01*
X148165350Y-51317438D02*
X148212969Y-51365057D01*
X148212969Y-51365057D02*
X148260588Y-51460295D01*
X148260588Y-51460295D02*
X148260588Y-51555533D01*
X148260588Y-51555533D02*
X148212969Y-51650771D01*
X148212969Y-51650771D02*
X148165350Y-51698390D01*
X148165350Y-51698390D02*
X148070112Y-51746009D01*
X148070112Y-51746009D02*
X147736779Y-51746009D01*
X108870112Y-58746009D02*
X109012969Y-58793628D01*
X109012969Y-58793628D02*
X109060588Y-58841247D01*
X109060588Y-58841247D02*
X109108207Y-58936485D01*
X109108207Y-58936485D02*
X109108207Y-59079342D01*
X109108207Y-59079342D02*
X109060588Y-59174580D01*
X109060588Y-59174580D02*
X109012969Y-59222200D01*
X109012969Y-59222200D02*
X108917731Y-59269819D01*
X108917731Y-59269819D02*
X108536779Y-59269819D01*
X108536779Y-59269819D02*
X108536779Y-58269819D01*
X108536779Y-58269819D02*
X108870112Y-58269819D01*
X108870112Y-58269819D02*
X108965350Y-58317438D01*
X108965350Y-58317438D02*
X109012969Y-58365057D01*
X109012969Y-58365057D02*
X109060588Y-58460295D01*
X109060588Y-58460295D02*
X109060588Y-58555533D01*
X109060588Y-58555533D02*
X109012969Y-58650771D01*
X109012969Y-58650771D02*
X108965350Y-58698390D01*
X108965350Y-58698390D02*
X108870112Y-58746009D01*
X108870112Y-58746009D02*
X108536779Y-58746009D01*
X109727255Y-58269819D02*
X109917731Y-58269819D01*
X109917731Y-58269819D02*
X110012969Y-58317438D01*
X110012969Y-58317438D02*
X110108207Y-58412676D01*
X110108207Y-58412676D02*
X110155826Y-58603152D01*
X110155826Y-58603152D02*
X110155826Y-58936485D01*
X110155826Y-58936485D02*
X110108207Y-59126961D01*
X110108207Y-59126961D02*
X110012969Y-59222200D01*
X110012969Y-59222200D02*
X109917731Y-59269819D01*
X109917731Y-59269819D02*
X109727255Y-59269819D01*
X109727255Y-59269819D02*
X109632017Y-59222200D01*
X109632017Y-59222200D02*
X109536779Y-59126961D01*
X109536779Y-59126961D02*
X109489160Y-58936485D01*
X109489160Y-58936485D02*
X109489160Y-58603152D01*
X109489160Y-58603152D02*
X109536779Y-58412676D01*
X109536779Y-58412676D02*
X109632017Y-58317438D01*
X109632017Y-58317438D02*
X109727255Y-58269819D01*
X110774874Y-58269819D02*
X110965350Y-58269819D01*
X110965350Y-58269819D02*
X111060588Y-58317438D01*
X111060588Y-58317438D02*
X111155826Y-58412676D01*
X111155826Y-58412676D02*
X111203445Y-58603152D01*
X111203445Y-58603152D02*
X111203445Y-58936485D01*
X111203445Y-58936485D02*
X111155826Y-59126961D01*
X111155826Y-59126961D02*
X111060588Y-59222200D01*
X111060588Y-59222200D02*
X110965350Y-59269819D01*
X110965350Y-59269819D02*
X110774874Y-59269819D01*
X110774874Y-59269819D02*
X110679636Y-59222200D01*
X110679636Y-59222200D02*
X110584398Y-59126961D01*
X110584398Y-59126961D02*
X110536779Y-58936485D01*
X110536779Y-58936485D02*
X110536779Y-58603152D01*
X110536779Y-58603152D02*
X110584398Y-58412676D01*
X110584398Y-58412676D02*
X110679636Y-58317438D01*
X110679636Y-58317438D02*
X110774874Y-58269819D01*
X111489160Y-58269819D02*
X112060588Y-58269819D01*
X111774874Y-59269819D02*
X111774874Y-58269819D01*
X115736779Y-71469819D02*
X115736779Y-70469819D01*
X116165350Y-70565057D02*
X116212969Y-70517438D01*
X116212969Y-70517438D02*
X116308207Y-70469819D01*
X116308207Y-70469819D02*
X116546302Y-70469819D01*
X116546302Y-70469819D02*
X116641540Y-70517438D01*
X116641540Y-70517438D02*
X116689159Y-70565057D01*
X116689159Y-70565057D02*
X116736778Y-70660295D01*
X116736778Y-70660295D02*
X116736778Y-70755533D01*
X116736778Y-70755533D02*
X116689159Y-70898390D01*
X116689159Y-70898390D02*
X116117731Y-71469819D01*
X116117731Y-71469819D02*
X116736778Y-71469819D01*
X117736778Y-71374580D02*
X117689159Y-71422200D01*
X117689159Y-71422200D02*
X117546302Y-71469819D01*
X117546302Y-71469819D02*
X117451064Y-71469819D01*
X117451064Y-71469819D02*
X117308207Y-71422200D01*
X117308207Y-71422200D02*
X117212969Y-71326961D01*
X117212969Y-71326961D02*
X117165350Y-71231723D01*
X117165350Y-71231723D02*
X117117731Y-71041247D01*
X117117731Y-71041247D02*
X117117731Y-70898390D01*
X117117731Y-70898390D02*
X117165350Y-70707914D01*
X117165350Y-70707914D02*
X117212969Y-70612676D01*
X117212969Y-70612676D02*
X117308207Y-70517438D01*
X117308207Y-70517438D02*
X117451064Y-70469819D01*
X117451064Y-70469819D02*
X117546302Y-70469819D01*
X117546302Y-70469819D02*
X117689159Y-70517438D01*
X117689159Y-70517438D02*
X117736778Y-70565057D01*
X121936779Y-46869819D02*
X121936779Y-47679342D01*
X121936779Y-47679342D02*
X121984398Y-47774580D01*
X121984398Y-47774580D02*
X122032017Y-47822200D01*
X122032017Y-47822200D02*
X122127255Y-47869819D01*
X122127255Y-47869819D02*
X122317731Y-47869819D01*
X122317731Y-47869819D02*
X122412969Y-47822200D01*
X122412969Y-47822200D02*
X122460588Y-47774580D01*
X122460588Y-47774580D02*
X122508207Y-47679342D01*
X122508207Y-47679342D02*
X122508207Y-46869819D01*
X122936779Y-47584104D02*
X123412969Y-47584104D01*
X122841541Y-47869819D02*
X123174874Y-46869819D01*
X123174874Y-46869819D02*
X123508207Y-47869819D01*
X124412969Y-47869819D02*
X124079636Y-47393628D01*
X123841541Y-47869819D02*
X123841541Y-46869819D01*
X123841541Y-46869819D02*
X124222493Y-46869819D01*
X124222493Y-46869819D02*
X124317731Y-46917438D01*
X124317731Y-46917438D02*
X124365350Y-46965057D01*
X124365350Y-46965057D02*
X124412969Y-47060295D01*
X124412969Y-47060295D02*
X124412969Y-47203152D01*
X124412969Y-47203152D02*
X124365350Y-47298390D01*
X124365350Y-47298390D02*
X124317731Y-47346009D01*
X124317731Y-47346009D02*
X124222493Y-47393628D01*
X124222493Y-47393628D02*
X123841541Y-47393628D01*
X124698684Y-46869819D02*
X125270112Y-46869819D01*
X124984398Y-47869819D02*
X124984398Y-46869819D01*
X133089160Y-48022200D02*
X133232017Y-48069819D01*
X133232017Y-48069819D02*
X133470112Y-48069819D01*
X133470112Y-48069819D02*
X133565350Y-48022200D01*
X133565350Y-48022200D02*
X133612969Y-47974580D01*
X133612969Y-47974580D02*
X133660588Y-47879342D01*
X133660588Y-47879342D02*
X133660588Y-47784104D01*
X133660588Y-47784104D02*
X133612969Y-47688866D01*
X133612969Y-47688866D02*
X133565350Y-47641247D01*
X133565350Y-47641247D02*
X133470112Y-47593628D01*
X133470112Y-47593628D02*
X133279636Y-47546009D01*
X133279636Y-47546009D02*
X133184398Y-47498390D01*
X133184398Y-47498390D02*
X133136779Y-47450771D01*
X133136779Y-47450771D02*
X133089160Y-47355533D01*
X133089160Y-47355533D02*
X133089160Y-47260295D01*
X133089160Y-47260295D02*
X133136779Y-47165057D01*
X133136779Y-47165057D02*
X133184398Y-47117438D01*
X133184398Y-47117438D02*
X133279636Y-47069819D01*
X133279636Y-47069819D02*
X133517731Y-47069819D01*
X133517731Y-47069819D02*
X133660588Y-47117438D01*
X133993922Y-47069819D02*
X134232017Y-48069819D01*
X134232017Y-48069819D02*
X134422493Y-47355533D01*
X134422493Y-47355533D02*
X134612969Y-48069819D01*
X134612969Y-48069819D02*
X134851065Y-47069819D01*
X135232017Y-48069819D02*
X135232017Y-47069819D01*
X135232017Y-47069819D02*
X135470112Y-47069819D01*
X135470112Y-47069819D02*
X135612969Y-47117438D01*
X135612969Y-47117438D02*
X135708207Y-47212676D01*
X135708207Y-47212676D02*
X135755826Y-47307914D01*
X135755826Y-47307914D02*
X135803445Y-47498390D01*
X135803445Y-47498390D02*
X135803445Y-47641247D01*
X135803445Y-47641247D02*
X135755826Y-47831723D01*
X135755826Y-47831723D02*
X135708207Y-47926961D01*
X135708207Y-47926961D02*
X135612969Y-48022200D01*
X135612969Y-48022200D02*
X135470112Y-48069819D01*
X135470112Y-48069819D02*
X135232017Y-48069819D01*
%TO.C,Y1*%
X112323809Y-60378628D02*
X112323809Y-60854819D01*
X111990476Y-59854819D02*
X112323809Y-60378628D01*
X112323809Y-60378628D02*
X112657142Y-59854819D01*
X113514285Y-60854819D02*
X112942857Y-60854819D01*
X113228571Y-60854819D02*
X113228571Y-59854819D01*
X113228571Y-59854819D02*
X113133333Y-59997676D01*
X113133333Y-59997676D02*
X113038095Y-60092914D01*
X113038095Y-60092914D02*
X112942857Y-60140533D01*
%TO.C,U2*%
X139838095Y-70254819D02*
X139838095Y-71064342D01*
X139838095Y-71064342D02*
X139885714Y-71159580D01*
X139885714Y-71159580D02*
X139933333Y-71207200D01*
X139933333Y-71207200D02*
X140028571Y-71254819D01*
X140028571Y-71254819D02*
X140219047Y-71254819D01*
X140219047Y-71254819D02*
X140314285Y-71207200D01*
X140314285Y-71207200D02*
X140361904Y-71159580D01*
X140361904Y-71159580D02*
X140409523Y-71064342D01*
X140409523Y-71064342D02*
X140409523Y-70254819D01*
X140838095Y-70350057D02*
X140885714Y-70302438D01*
X140885714Y-70302438D02*
X140980952Y-70254819D01*
X140980952Y-70254819D02*
X141219047Y-70254819D01*
X141219047Y-70254819D02*
X141314285Y-70302438D01*
X141314285Y-70302438D02*
X141361904Y-70350057D01*
X141361904Y-70350057D02*
X141409523Y-70445295D01*
X141409523Y-70445295D02*
X141409523Y-70540533D01*
X141409523Y-70540533D02*
X141361904Y-70683390D01*
X141361904Y-70683390D02*
X140790476Y-71254819D01*
X140790476Y-71254819D02*
X141409523Y-71254819D01*
%TO.C,U1*%
X124825595Y-52354819D02*
X124825595Y-53164342D01*
X124825595Y-53164342D02*
X124873214Y-53259580D01*
X124873214Y-53259580D02*
X124920833Y-53307200D01*
X124920833Y-53307200D02*
X125016071Y-53354819D01*
X125016071Y-53354819D02*
X125206547Y-53354819D01*
X125206547Y-53354819D02*
X125301785Y-53307200D01*
X125301785Y-53307200D02*
X125349404Y-53259580D01*
X125349404Y-53259580D02*
X125397023Y-53164342D01*
X125397023Y-53164342D02*
X125397023Y-52354819D01*
X126397023Y-53354819D02*
X125825595Y-53354819D01*
X126111309Y-53354819D02*
X126111309Y-52354819D01*
X126111309Y-52354819D02*
X126016071Y-52497676D01*
X126016071Y-52497676D02*
X125920833Y-52592914D01*
X125920833Y-52592914D02*
X125825595Y-52640533D01*
%TO.C,R5*%
X128233333Y-67854819D02*
X127900000Y-67378628D01*
X127661905Y-67854819D02*
X127661905Y-66854819D01*
X127661905Y-66854819D02*
X128042857Y-66854819D01*
X128042857Y-66854819D02*
X128138095Y-66902438D01*
X128138095Y-66902438D02*
X128185714Y-66950057D01*
X128185714Y-66950057D02*
X128233333Y-67045295D01*
X128233333Y-67045295D02*
X128233333Y-67188152D01*
X128233333Y-67188152D02*
X128185714Y-67283390D01*
X128185714Y-67283390D02*
X128138095Y-67331009D01*
X128138095Y-67331009D02*
X128042857Y-67378628D01*
X128042857Y-67378628D02*
X127661905Y-67378628D01*
X129138095Y-66854819D02*
X128661905Y-66854819D01*
X128661905Y-66854819D02*
X128614286Y-67331009D01*
X128614286Y-67331009D02*
X128661905Y-67283390D01*
X128661905Y-67283390D02*
X128757143Y-67235771D01*
X128757143Y-67235771D02*
X128995238Y-67235771D01*
X128995238Y-67235771D02*
X129090476Y-67283390D01*
X129090476Y-67283390D02*
X129138095Y-67331009D01*
X129138095Y-67331009D02*
X129185714Y-67426247D01*
X129185714Y-67426247D02*
X129185714Y-67664342D01*
X129185714Y-67664342D02*
X129138095Y-67759580D01*
X129138095Y-67759580D02*
X129090476Y-67807200D01*
X129090476Y-67807200D02*
X128995238Y-67854819D01*
X128995238Y-67854819D02*
X128757143Y-67854819D01*
X128757143Y-67854819D02*
X128661905Y-67807200D01*
X128661905Y-67807200D02*
X128614286Y-67759580D01*
%TO.C,R4*%
X121833333Y-67854819D02*
X121500000Y-67378628D01*
X121261905Y-67854819D02*
X121261905Y-66854819D01*
X121261905Y-66854819D02*
X121642857Y-66854819D01*
X121642857Y-66854819D02*
X121738095Y-66902438D01*
X121738095Y-66902438D02*
X121785714Y-66950057D01*
X121785714Y-66950057D02*
X121833333Y-67045295D01*
X121833333Y-67045295D02*
X121833333Y-67188152D01*
X121833333Y-67188152D02*
X121785714Y-67283390D01*
X121785714Y-67283390D02*
X121738095Y-67331009D01*
X121738095Y-67331009D02*
X121642857Y-67378628D01*
X121642857Y-67378628D02*
X121261905Y-67378628D01*
X122690476Y-67188152D02*
X122690476Y-67854819D01*
X122452381Y-66807200D02*
X122214286Y-67521485D01*
X122214286Y-67521485D02*
X122833333Y-67521485D01*
%TO.C,R3*%
X141833333Y-63654819D02*
X141500000Y-63178628D01*
X141261905Y-63654819D02*
X141261905Y-62654819D01*
X141261905Y-62654819D02*
X141642857Y-62654819D01*
X141642857Y-62654819D02*
X141738095Y-62702438D01*
X141738095Y-62702438D02*
X141785714Y-62750057D01*
X141785714Y-62750057D02*
X141833333Y-62845295D01*
X141833333Y-62845295D02*
X141833333Y-62988152D01*
X141833333Y-62988152D02*
X141785714Y-63083390D01*
X141785714Y-63083390D02*
X141738095Y-63131009D01*
X141738095Y-63131009D02*
X141642857Y-63178628D01*
X141642857Y-63178628D02*
X141261905Y-63178628D01*
X142166667Y-62654819D02*
X142785714Y-62654819D01*
X142785714Y-62654819D02*
X142452381Y-63035771D01*
X142452381Y-63035771D02*
X142595238Y-63035771D01*
X142595238Y-63035771D02*
X142690476Y-63083390D01*
X142690476Y-63083390D02*
X142738095Y-63131009D01*
X142738095Y-63131009D02*
X142785714Y-63226247D01*
X142785714Y-63226247D02*
X142785714Y-63464342D01*
X142785714Y-63464342D02*
X142738095Y-63559580D01*
X142738095Y-63559580D02*
X142690476Y-63607200D01*
X142690476Y-63607200D02*
X142595238Y-63654819D01*
X142595238Y-63654819D02*
X142309524Y-63654819D01*
X142309524Y-63654819D02*
X142214286Y-63607200D01*
X142214286Y-63607200D02*
X142166667Y-63559580D01*
%TO.C,R2*%
X134833333Y-55754819D02*
X134500000Y-55278628D01*
X134261905Y-55754819D02*
X134261905Y-54754819D01*
X134261905Y-54754819D02*
X134642857Y-54754819D01*
X134642857Y-54754819D02*
X134738095Y-54802438D01*
X134738095Y-54802438D02*
X134785714Y-54850057D01*
X134785714Y-54850057D02*
X134833333Y-54945295D01*
X134833333Y-54945295D02*
X134833333Y-55088152D01*
X134833333Y-55088152D02*
X134785714Y-55183390D01*
X134785714Y-55183390D02*
X134738095Y-55231009D01*
X134738095Y-55231009D02*
X134642857Y-55278628D01*
X134642857Y-55278628D02*
X134261905Y-55278628D01*
X135214286Y-54850057D02*
X135261905Y-54802438D01*
X135261905Y-54802438D02*
X135357143Y-54754819D01*
X135357143Y-54754819D02*
X135595238Y-54754819D01*
X135595238Y-54754819D02*
X135690476Y-54802438D01*
X135690476Y-54802438D02*
X135738095Y-54850057D01*
X135738095Y-54850057D02*
X135785714Y-54945295D01*
X135785714Y-54945295D02*
X135785714Y-55040533D01*
X135785714Y-55040533D02*
X135738095Y-55183390D01*
X135738095Y-55183390D02*
X135166667Y-55754819D01*
X135166667Y-55754819D02*
X135785714Y-55754819D01*
%TO.C,R1*%
X113833333Y-52454819D02*
X113500000Y-51978628D01*
X113261905Y-52454819D02*
X113261905Y-51454819D01*
X113261905Y-51454819D02*
X113642857Y-51454819D01*
X113642857Y-51454819D02*
X113738095Y-51502438D01*
X113738095Y-51502438D02*
X113785714Y-51550057D01*
X113785714Y-51550057D02*
X113833333Y-51645295D01*
X113833333Y-51645295D02*
X113833333Y-51788152D01*
X113833333Y-51788152D02*
X113785714Y-51883390D01*
X113785714Y-51883390D02*
X113738095Y-51931009D01*
X113738095Y-51931009D02*
X113642857Y-51978628D01*
X113642857Y-51978628D02*
X113261905Y-51978628D01*
X114785714Y-52454819D02*
X114214286Y-52454819D01*
X114500000Y-52454819D02*
X114500000Y-51454819D01*
X114500000Y-51454819D02*
X114404762Y-51597676D01*
X114404762Y-51597676D02*
X114309524Y-51692914D01*
X114309524Y-51692914D02*
X114214286Y-51740533D01*
%TO.C,FB1*%
X119966666Y-65781009D02*
X119633333Y-65781009D01*
X119633333Y-66304819D02*
X119633333Y-65304819D01*
X119633333Y-65304819D02*
X120109523Y-65304819D01*
X120823809Y-65781009D02*
X120966666Y-65828628D01*
X120966666Y-65828628D02*
X121014285Y-65876247D01*
X121014285Y-65876247D02*
X121061904Y-65971485D01*
X121061904Y-65971485D02*
X121061904Y-66114342D01*
X121061904Y-66114342D02*
X121014285Y-66209580D01*
X121014285Y-66209580D02*
X120966666Y-66257200D01*
X120966666Y-66257200D02*
X120871428Y-66304819D01*
X120871428Y-66304819D02*
X120490476Y-66304819D01*
X120490476Y-66304819D02*
X120490476Y-65304819D01*
X120490476Y-65304819D02*
X120823809Y-65304819D01*
X120823809Y-65304819D02*
X120919047Y-65352438D01*
X120919047Y-65352438D02*
X120966666Y-65400057D01*
X120966666Y-65400057D02*
X121014285Y-65495295D01*
X121014285Y-65495295D02*
X121014285Y-65590533D01*
X121014285Y-65590533D02*
X120966666Y-65685771D01*
X120966666Y-65685771D02*
X120919047Y-65733390D01*
X120919047Y-65733390D02*
X120823809Y-65781009D01*
X120823809Y-65781009D02*
X120490476Y-65781009D01*
X122014285Y-66304819D02*
X121442857Y-66304819D01*
X121728571Y-66304819D02*
X121728571Y-65304819D01*
X121728571Y-65304819D02*
X121633333Y-65447676D01*
X121633333Y-65447676D02*
X121538095Y-65542914D01*
X121538095Y-65542914D02*
X121442857Y-65590533D01*
%TO.C,C13*%
X131757142Y-61959580D02*
X131709523Y-62007200D01*
X131709523Y-62007200D02*
X131566666Y-62054819D01*
X131566666Y-62054819D02*
X131471428Y-62054819D01*
X131471428Y-62054819D02*
X131328571Y-62007200D01*
X131328571Y-62007200D02*
X131233333Y-61911961D01*
X131233333Y-61911961D02*
X131185714Y-61816723D01*
X131185714Y-61816723D02*
X131138095Y-61626247D01*
X131138095Y-61626247D02*
X131138095Y-61483390D01*
X131138095Y-61483390D02*
X131185714Y-61292914D01*
X131185714Y-61292914D02*
X131233333Y-61197676D01*
X131233333Y-61197676D02*
X131328571Y-61102438D01*
X131328571Y-61102438D02*
X131471428Y-61054819D01*
X131471428Y-61054819D02*
X131566666Y-61054819D01*
X131566666Y-61054819D02*
X131709523Y-61102438D01*
X131709523Y-61102438D02*
X131757142Y-61150057D01*
X132709523Y-62054819D02*
X132138095Y-62054819D01*
X132423809Y-62054819D02*
X132423809Y-61054819D01*
X132423809Y-61054819D02*
X132328571Y-61197676D01*
X132328571Y-61197676D02*
X132233333Y-61292914D01*
X132233333Y-61292914D02*
X132138095Y-61340533D01*
X133042857Y-61054819D02*
X133661904Y-61054819D01*
X133661904Y-61054819D02*
X133328571Y-61435771D01*
X133328571Y-61435771D02*
X133471428Y-61435771D01*
X133471428Y-61435771D02*
X133566666Y-61483390D01*
X133566666Y-61483390D02*
X133614285Y-61531009D01*
X133614285Y-61531009D02*
X133661904Y-61626247D01*
X133661904Y-61626247D02*
X133661904Y-61864342D01*
X133661904Y-61864342D02*
X133614285Y-61959580D01*
X133614285Y-61959580D02*
X133566666Y-62007200D01*
X133566666Y-62007200D02*
X133471428Y-62054819D01*
X133471428Y-62054819D02*
X133185714Y-62054819D01*
X133185714Y-62054819D02*
X133090476Y-62007200D01*
X133090476Y-62007200D02*
X133042857Y-61959580D01*
%TO.C,C12*%
X140557142Y-64959580D02*
X140509523Y-65007200D01*
X140509523Y-65007200D02*
X140366666Y-65054819D01*
X140366666Y-65054819D02*
X140271428Y-65054819D01*
X140271428Y-65054819D02*
X140128571Y-65007200D01*
X140128571Y-65007200D02*
X140033333Y-64911961D01*
X140033333Y-64911961D02*
X139985714Y-64816723D01*
X139985714Y-64816723D02*
X139938095Y-64626247D01*
X139938095Y-64626247D02*
X139938095Y-64483390D01*
X139938095Y-64483390D02*
X139985714Y-64292914D01*
X139985714Y-64292914D02*
X140033333Y-64197676D01*
X140033333Y-64197676D02*
X140128571Y-64102438D01*
X140128571Y-64102438D02*
X140271428Y-64054819D01*
X140271428Y-64054819D02*
X140366666Y-64054819D01*
X140366666Y-64054819D02*
X140509523Y-64102438D01*
X140509523Y-64102438D02*
X140557142Y-64150057D01*
X141509523Y-65054819D02*
X140938095Y-65054819D01*
X141223809Y-65054819D02*
X141223809Y-64054819D01*
X141223809Y-64054819D02*
X141128571Y-64197676D01*
X141128571Y-64197676D02*
X141033333Y-64292914D01*
X141033333Y-64292914D02*
X140938095Y-64340533D01*
X141890476Y-64150057D02*
X141938095Y-64102438D01*
X141938095Y-64102438D02*
X142033333Y-64054819D01*
X142033333Y-64054819D02*
X142271428Y-64054819D01*
X142271428Y-64054819D02*
X142366666Y-64102438D01*
X142366666Y-64102438D02*
X142414285Y-64150057D01*
X142414285Y-64150057D02*
X142461904Y-64245295D01*
X142461904Y-64245295D02*
X142461904Y-64340533D01*
X142461904Y-64340533D02*
X142414285Y-64483390D01*
X142414285Y-64483390D02*
X141842857Y-65054819D01*
X141842857Y-65054819D02*
X142461904Y-65054819D01*
%TO.C,C11*%
X115757142Y-60829580D02*
X115709523Y-60877200D01*
X115709523Y-60877200D02*
X115566666Y-60924819D01*
X115566666Y-60924819D02*
X115471428Y-60924819D01*
X115471428Y-60924819D02*
X115328571Y-60877200D01*
X115328571Y-60877200D02*
X115233333Y-60781961D01*
X115233333Y-60781961D02*
X115185714Y-60686723D01*
X115185714Y-60686723D02*
X115138095Y-60496247D01*
X115138095Y-60496247D02*
X115138095Y-60353390D01*
X115138095Y-60353390D02*
X115185714Y-60162914D01*
X115185714Y-60162914D02*
X115233333Y-60067676D01*
X115233333Y-60067676D02*
X115328571Y-59972438D01*
X115328571Y-59972438D02*
X115471428Y-59924819D01*
X115471428Y-59924819D02*
X115566666Y-59924819D01*
X115566666Y-59924819D02*
X115709523Y-59972438D01*
X115709523Y-59972438D02*
X115757142Y-60020057D01*
X116709523Y-60924819D02*
X116138095Y-60924819D01*
X116423809Y-60924819D02*
X116423809Y-59924819D01*
X116423809Y-59924819D02*
X116328571Y-60067676D01*
X116328571Y-60067676D02*
X116233333Y-60162914D01*
X116233333Y-60162914D02*
X116138095Y-60210533D01*
X117661904Y-60924819D02*
X117090476Y-60924819D01*
X117376190Y-60924819D02*
X117376190Y-59924819D01*
X117376190Y-59924819D02*
X117280952Y-60067676D01*
X117280952Y-60067676D02*
X117185714Y-60162914D01*
X117185714Y-60162914D02*
X117090476Y-60210533D01*
%TO.C,C10*%
X115357142Y-54559580D02*
X115309523Y-54607200D01*
X115309523Y-54607200D02*
X115166666Y-54654819D01*
X115166666Y-54654819D02*
X115071428Y-54654819D01*
X115071428Y-54654819D02*
X114928571Y-54607200D01*
X114928571Y-54607200D02*
X114833333Y-54511961D01*
X114833333Y-54511961D02*
X114785714Y-54416723D01*
X114785714Y-54416723D02*
X114738095Y-54226247D01*
X114738095Y-54226247D02*
X114738095Y-54083390D01*
X114738095Y-54083390D02*
X114785714Y-53892914D01*
X114785714Y-53892914D02*
X114833333Y-53797676D01*
X114833333Y-53797676D02*
X114928571Y-53702438D01*
X114928571Y-53702438D02*
X115071428Y-53654819D01*
X115071428Y-53654819D02*
X115166666Y-53654819D01*
X115166666Y-53654819D02*
X115309523Y-53702438D01*
X115309523Y-53702438D02*
X115357142Y-53750057D01*
X116309523Y-54654819D02*
X115738095Y-54654819D01*
X116023809Y-54654819D02*
X116023809Y-53654819D01*
X116023809Y-53654819D02*
X115928571Y-53797676D01*
X115928571Y-53797676D02*
X115833333Y-53892914D01*
X115833333Y-53892914D02*
X115738095Y-53940533D01*
X116928571Y-53654819D02*
X117023809Y-53654819D01*
X117023809Y-53654819D02*
X117119047Y-53702438D01*
X117119047Y-53702438D02*
X117166666Y-53750057D01*
X117166666Y-53750057D02*
X117214285Y-53845295D01*
X117214285Y-53845295D02*
X117261904Y-54035771D01*
X117261904Y-54035771D02*
X117261904Y-54273866D01*
X117261904Y-54273866D02*
X117214285Y-54464342D01*
X117214285Y-54464342D02*
X117166666Y-54559580D01*
X117166666Y-54559580D02*
X117119047Y-54607200D01*
X117119047Y-54607200D02*
X117023809Y-54654819D01*
X117023809Y-54654819D02*
X116928571Y-54654819D01*
X116928571Y-54654819D02*
X116833333Y-54607200D01*
X116833333Y-54607200D02*
X116785714Y-54559580D01*
X116785714Y-54559580D02*
X116738095Y-54464342D01*
X116738095Y-54464342D02*
X116690476Y-54273866D01*
X116690476Y-54273866D02*
X116690476Y-54035771D01*
X116690476Y-54035771D02*
X116738095Y-53845295D01*
X116738095Y-53845295D02*
X116785714Y-53750057D01*
X116785714Y-53750057D02*
X116833333Y-53702438D01*
X116833333Y-53702438D02*
X116928571Y-53654819D01*
%TO.C,C9*%
X124833333Y-65109580D02*
X124785714Y-65157200D01*
X124785714Y-65157200D02*
X124642857Y-65204819D01*
X124642857Y-65204819D02*
X124547619Y-65204819D01*
X124547619Y-65204819D02*
X124404762Y-65157200D01*
X124404762Y-65157200D02*
X124309524Y-65061961D01*
X124309524Y-65061961D02*
X124261905Y-64966723D01*
X124261905Y-64966723D02*
X124214286Y-64776247D01*
X124214286Y-64776247D02*
X124214286Y-64633390D01*
X124214286Y-64633390D02*
X124261905Y-64442914D01*
X124261905Y-64442914D02*
X124309524Y-64347676D01*
X124309524Y-64347676D02*
X124404762Y-64252438D01*
X124404762Y-64252438D02*
X124547619Y-64204819D01*
X124547619Y-64204819D02*
X124642857Y-64204819D01*
X124642857Y-64204819D02*
X124785714Y-64252438D01*
X124785714Y-64252438D02*
X124833333Y-64300057D01*
X125309524Y-65204819D02*
X125500000Y-65204819D01*
X125500000Y-65204819D02*
X125595238Y-65157200D01*
X125595238Y-65157200D02*
X125642857Y-65109580D01*
X125642857Y-65109580D02*
X125738095Y-64966723D01*
X125738095Y-64966723D02*
X125785714Y-64776247D01*
X125785714Y-64776247D02*
X125785714Y-64395295D01*
X125785714Y-64395295D02*
X125738095Y-64300057D01*
X125738095Y-64300057D02*
X125690476Y-64252438D01*
X125690476Y-64252438D02*
X125595238Y-64204819D01*
X125595238Y-64204819D02*
X125404762Y-64204819D01*
X125404762Y-64204819D02*
X125309524Y-64252438D01*
X125309524Y-64252438D02*
X125261905Y-64300057D01*
X125261905Y-64300057D02*
X125214286Y-64395295D01*
X125214286Y-64395295D02*
X125214286Y-64633390D01*
X125214286Y-64633390D02*
X125261905Y-64728628D01*
X125261905Y-64728628D02*
X125309524Y-64776247D01*
X125309524Y-64776247D02*
X125404762Y-64823866D01*
X125404762Y-64823866D02*
X125595238Y-64823866D01*
X125595238Y-64823866D02*
X125690476Y-64776247D01*
X125690476Y-64776247D02*
X125738095Y-64728628D01*
X125738095Y-64728628D02*
X125785714Y-64633390D01*
%TO.C,C8*%
X116613333Y-64859580D02*
X116565714Y-64907200D01*
X116565714Y-64907200D02*
X116422857Y-64954819D01*
X116422857Y-64954819D02*
X116327619Y-64954819D01*
X116327619Y-64954819D02*
X116184762Y-64907200D01*
X116184762Y-64907200D02*
X116089524Y-64811961D01*
X116089524Y-64811961D02*
X116041905Y-64716723D01*
X116041905Y-64716723D02*
X115994286Y-64526247D01*
X115994286Y-64526247D02*
X115994286Y-64383390D01*
X115994286Y-64383390D02*
X116041905Y-64192914D01*
X116041905Y-64192914D02*
X116089524Y-64097676D01*
X116089524Y-64097676D02*
X116184762Y-64002438D01*
X116184762Y-64002438D02*
X116327619Y-63954819D01*
X116327619Y-63954819D02*
X116422857Y-63954819D01*
X116422857Y-63954819D02*
X116565714Y-64002438D01*
X116565714Y-64002438D02*
X116613333Y-64050057D01*
X117184762Y-64383390D02*
X117089524Y-64335771D01*
X117089524Y-64335771D02*
X117041905Y-64288152D01*
X117041905Y-64288152D02*
X116994286Y-64192914D01*
X116994286Y-64192914D02*
X116994286Y-64145295D01*
X116994286Y-64145295D02*
X117041905Y-64050057D01*
X117041905Y-64050057D02*
X117089524Y-64002438D01*
X117089524Y-64002438D02*
X117184762Y-63954819D01*
X117184762Y-63954819D02*
X117375238Y-63954819D01*
X117375238Y-63954819D02*
X117470476Y-64002438D01*
X117470476Y-64002438D02*
X117518095Y-64050057D01*
X117518095Y-64050057D02*
X117565714Y-64145295D01*
X117565714Y-64145295D02*
X117565714Y-64192914D01*
X117565714Y-64192914D02*
X117518095Y-64288152D01*
X117518095Y-64288152D02*
X117470476Y-64335771D01*
X117470476Y-64335771D02*
X117375238Y-64383390D01*
X117375238Y-64383390D02*
X117184762Y-64383390D01*
X117184762Y-64383390D02*
X117089524Y-64431009D01*
X117089524Y-64431009D02*
X117041905Y-64478628D01*
X117041905Y-64478628D02*
X116994286Y-64573866D01*
X116994286Y-64573866D02*
X116994286Y-64764342D01*
X116994286Y-64764342D02*
X117041905Y-64859580D01*
X117041905Y-64859580D02*
X117089524Y-64907200D01*
X117089524Y-64907200D02*
X117184762Y-64954819D01*
X117184762Y-64954819D02*
X117375238Y-64954819D01*
X117375238Y-64954819D02*
X117470476Y-64907200D01*
X117470476Y-64907200D02*
X117518095Y-64859580D01*
X117518095Y-64859580D02*
X117565714Y-64764342D01*
X117565714Y-64764342D02*
X117565714Y-64573866D01*
X117565714Y-64573866D02*
X117518095Y-64478628D01*
X117518095Y-64478628D02*
X117470476Y-64431009D01*
X117470476Y-64431009D02*
X117375238Y-64383390D01*
%TO.C,C7*%
X116633333Y-63609580D02*
X116585714Y-63657200D01*
X116585714Y-63657200D02*
X116442857Y-63704819D01*
X116442857Y-63704819D02*
X116347619Y-63704819D01*
X116347619Y-63704819D02*
X116204762Y-63657200D01*
X116204762Y-63657200D02*
X116109524Y-63561961D01*
X116109524Y-63561961D02*
X116061905Y-63466723D01*
X116061905Y-63466723D02*
X116014286Y-63276247D01*
X116014286Y-63276247D02*
X116014286Y-63133390D01*
X116014286Y-63133390D02*
X116061905Y-62942914D01*
X116061905Y-62942914D02*
X116109524Y-62847676D01*
X116109524Y-62847676D02*
X116204762Y-62752438D01*
X116204762Y-62752438D02*
X116347619Y-62704819D01*
X116347619Y-62704819D02*
X116442857Y-62704819D01*
X116442857Y-62704819D02*
X116585714Y-62752438D01*
X116585714Y-62752438D02*
X116633333Y-62800057D01*
X116966667Y-62704819D02*
X117633333Y-62704819D01*
X117633333Y-62704819D02*
X117204762Y-63704819D01*
%TO.C,C6*%
X119333333Y-61879580D02*
X119285714Y-61927200D01*
X119285714Y-61927200D02*
X119142857Y-61974819D01*
X119142857Y-61974819D02*
X119047619Y-61974819D01*
X119047619Y-61974819D02*
X118904762Y-61927200D01*
X118904762Y-61927200D02*
X118809524Y-61831961D01*
X118809524Y-61831961D02*
X118761905Y-61736723D01*
X118761905Y-61736723D02*
X118714286Y-61546247D01*
X118714286Y-61546247D02*
X118714286Y-61403390D01*
X118714286Y-61403390D02*
X118761905Y-61212914D01*
X118761905Y-61212914D02*
X118809524Y-61117676D01*
X118809524Y-61117676D02*
X118904762Y-61022438D01*
X118904762Y-61022438D02*
X119047619Y-60974819D01*
X119047619Y-60974819D02*
X119142857Y-60974819D01*
X119142857Y-60974819D02*
X119285714Y-61022438D01*
X119285714Y-61022438D02*
X119333333Y-61070057D01*
X120190476Y-60974819D02*
X120000000Y-60974819D01*
X120000000Y-60974819D02*
X119904762Y-61022438D01*
X119904762Y-61022438D02*
X119857143Y-61070057D01*
X119857143Y-61070057D02*
X119761905Y-61212914D01*
X119761905Y-61212914D02*
X119714286Y-61403390D01*
X119714286Y-61403390D02*
X119714286Y-61784342D01*
X119714286Y-61784342D02*
X119761905Y-61879580D01*
X119761905Y-61879580D02*
X119809524Y-61927200D01*
X119809524Y-61927200D02*
X119904762Y-61974819D01*
X119904762Y-61974819D02*
X120095238Y-61974819D01*
X120095238Y-61974819D02*
X120190476Y-61927200D01*
X120190476Y-61927200D02*
X120238095Y-61879580D01*
X120238095Y-61879580D02*
X120285714Y-61784342D01*
X120285714Y-61784342D02*
X120285714Y-61546247D01*
X120285714Y-61546247D02*
X120238095Y-61451009D01*
X120238095Y-61451009D02*
X120190476Y-61403390D01*
X120190476Y-61403390D02*
X120095238Y-61355771D01*
X120095238Y-61355771D02*
X119904762Y-61355771D01*
X119904762Y-61355771D02*
X119809524Y-61403390D01*
X119809524Y-61403390D02*
X119761905Y-61451009D01*
X119761905Y-61451009D02*
X119714286Y-61546247D01*
%TO.C,C5*%
X120283333Y-51359580D02*
X120235714Y-51407200D01*
X120235714Y-51407200D02*
X120092857Y-51454819D01*
X120092857Y-51454819D02*
X119997619Y-51454819D01*
X119997619Y-51454819D02*
X119854762Y-51407200D01*
X119854762Y-51407200D02*
X119759524Y-51311961D01*
X119759524Y-51311961D02*
X119711905Y-51216723D01*
X119711905Y-51216723D02*
X119664286Y-51026247D01*
X119664286Y-51026247D02*
X119664286Y-50883390D01*
X119664286Y-50883390D02*
X119711905Y-50692914D01*
X119711905Y-50692914D02*
X119759524Y-50597676D01*
X119759524Y-50597676D02*
X119854762Y-50502438D01*
X119854762Y-50502438D02*
X119997619Y-50454819D01*
X119997619Y-50454819D02*
X120092857Y-50454819D01*
X120092857Y-50454819D02*
X120235714Y-50502438D01*
X120235714Y-50502438D02*
X120283333Y-50550057D01*
X121188095Y-50454819D02*
X120711905Y-50454819D01*
X120711905Y-50454819D02*
X120664286Y-50931009D01*
X120664286Y-50931009D02*
X120711905Y-50883390D01*
X120711905Y-50883390D02*
X120807143Y-50835771D01*
X120807143Y-50835771D02*
X121045238Y-50835771D01*
X121045238Y-50835771D02*
X121140476Y-50883390D01*
X121140476Y-50883390D02*
X121188095Y-50931009D01*
X121188095Y-50931009D02*
X121235714Y-51026247D01*
X121235714Y-51026247D02*
X121235714Y-51264342D01*
X121235714Y-51264342D02*
X121188095Y-51359580D01*
X121188095Y-51359580D02*
X121140476Y-51407200D01*
X121140476Y-51407200D02*
X121045238Y-51454819D01*
X121045238Y-51454819D02*
X120807143Y-51454819D01*
X120807143Y-51454819D02*
X120711905Y-51407200D01*
X120711905Y-51407200D02*
X120664286Y-51359580D01*
%TO.C,C4*%
X120833333Y-54759580D02*
X120785714Y-54807200D01*
X120785714Y-54807200D02*
X120642857Y-54854819D01*
X120642857Y-54854819D02*
X120547619Y-54854819D01*
X120547619Y-54854819D02*
X120404762Y-54807200D01*
X120404762Y-54807200D02*
X120309524Y-54711961D01*
X120309524Y-54711961D02*
X120261905Y-54616723D01*
X120261905Y-54616723D02*
X120214286Y-54426247D01*
X120214286Y-54426247D02*
X120214286Y-54283390D01*
X120214286Y-54283390D02*
X120261905Y-54092914D01*
X120261905Y-54092914D02*
X120309524Y-53997676D01*
X120309524Y-53997676D02*
X120404762Y-53902438D01*
X120404762Y-53902438D02*
X120547619Y-53854819D01*
X120547619Y-53854819D02*
X120642857Y-53854819D01*
X120642857Y-53854819D02*
X120785714Y-53902438D01*
X120785714Y-53902438D02*
X120833333Y-53950057D01*
X121690476Y-54188152D02*
X121690476Y-54854819D01*
X121452381Y-53807200D02*
X121214286Y-54521485D01*
X121214286Y-54521485D02*
X121833333Y-54521485D01*
%TO.C,C3*%
X130433333Y-65009580D02*
X130385714Y-65057200D01*
X130385714Y-65057200D02*
X130242857Y-65104819D01*
X130242857Y-65104819D02*
X130147619Y-65104819D01*
X130147619Y-65104819D02*
X130004762Y-65057200D01*
X130004762Y-65057200D02*
X129909524Y-64961961D01*
X129909524Y-64961961D02*
X129861905Y-64866723D01*
X129861905Y-64866723D02*
X129814286Y-64676247D01*
X129814286Y-64676247D02*
X129814286Y-64533390D01*
X129814286Y-64533390D02*
X129861905Y-64342914D01*
X129861905Y-64342914D02*
X129909524Y-64247676D01*
X129909524Y-64247676D02*
X130004762Y-64152438D01*
X130004762Y-64152438D02*
X130147619Y-64104819D01*
X130147619Y-64104819D02*
X130242857Y-64104819D01*
X130242857Y-64104819D02*
X130385714Y-64152438D01*
X130385714Y-64152438D02*
X130433333Y-64200057D01*
X130766667Y-64104819D02*
X131385714Y-64104819D01*
X131385714Y-64104819D02*
X131052381Y-64485771D01*
X131052381Y-64485771D02*
X131195238Y-64485771D01*
X131195238Y-64485771D02*
X131290476Y-64533390D01*
X131290476Y-64533390D02*
X131338095Y-64581009D01*
X131338095Y-64581009D02*
X131385714Y-64676247D01*
X131385714Y-64676247D02*
X131385714Y-64914342D01*
X131385714Y-64914342D02*
X131338095Y-65009580D01*
X131338095Y-65009580D02*
X131290476Y-65057200D01*
X131290476Y-65057200D02*
X131195238Y-65104819D01*
X131195238Y-65104819D02*
X130909524Y-65104819D01*
X130909524Y-65104819D02*
X130814286Y-65057200D01*
X130814286Y-65057200D02*
X130766667Y-65009580D01*
%TO.C,C2*%
X132833333Y-56609580D02*
X132785714Y-56657200D01*
X132785714Y-56657200D02*
X132642857Y-56704819D01*
X132642857Y-56704819D02*
X132547619Y-56704819D01*
X132547619Y-56704819D02*
X132404762Y-56657200D01*
X132404762Y-56657200D02*
X132309524Y-56561961D01*
X132309524Y-56561961D02*
X132261905Y-56466723D01*
X132261905Y-56466723D02*
X132214286Y-56276247D01*
X132214286Y-56276247D02*
X132214286Y-56133390D01*
X132214286Y-56133390D02*
X132261905Y-55942914D01*
X132261905Y-55942914D02*
X132309524Y-55847676D01*
X132309524Y-55847676D02*
X132404762Y-55752438D01*
X132404762Y-55752438D02*
X132547619Y-55704819D01*
X132547619Y-55704819D02*
X132642857Y-55704819D01*
X132642857Y-55704819D02*
X132785714Y-55752438D01*
X132785714Y-55752438D02*
X132833333Y-55800057D01*
X133214286Y-55800057D02*
X133261905Y-55752438D01*
X133261905Y-55752438D02*
X133357143Y-55704819D01*
X133357143Y-55704819D02*
X133595238Y-55704819D01*
X133595238Y-55704819D02*
X133690476Y-55752438D01*
X133690476Y-55752438D02*
X133738095Y-55800057D01*
X133738095Y-55800057D02*
X133785714Y-55895295D01*
X133785714Y-55895295D02*
X133785714Y-55990533D01*
X133785714Y-55990533D02*
X133738095Y-56133390D01*
X133738095Y-56133390D02*
X133166667Y-56704819D01*
X133166667Y-56704819D02*
X133785714Y-56704819D01*
%TO.C,C1*%
X121233333Y-53159580D02*
X121185714Y-53207200D01*
X121185714Y-53207200D02*
X121042857Y-53254819D01*
X121042857Y-53254819D02*
X120947619Y-53254819D01*
X120947619Y-53254819D02*
X120804762Y-53207200D01*
X120804762Y-53207200D02*
X120709524Y-53111961D01*
X120709524Y-53111961D02*
X120661905Y-53016723D01*
X120661905Y-53016723D02*
X120614286Y-52826247D01*
X120614286Y-52826247D02*
X120614286Y-52683390D01*
X120614286Y-52683390D02*
X120661905Y-52492914D01*
X120661905Y-52492914D02*
X120709524Y-52397676D01*
X120709524Y-52397676D02*
X120804762Y-52302438D01*
X120804762Y-52302438D02*
X120947619Y-52254819D01*
X120947619Y-52254819D02*
X121042857Y-52254819D01*
X121042857Y-52254819D02*
X121185714Y-52302438D01*
X121185714Y-52302438D02*
X121233333Y-52350057D01*
X122185714Y-53254819D02*
X121614286Y-53254819D01*
X121900000Y-53254819D02*
X121900000Y-52254819D01*
X121900000Y-52254819D02*
X121804762Y-52397676D01*
X121804762Y-52397676D02*
X121709524Y-52492914D01*
X121709524Y-52492914D02*
X121614286Y-52540533D01*
D11*
%TO.C,SW1*%
X109480000Y-56850000D02*
X110270000Y-56850000D01*
X111320000Y-54800000D02*
X111320000Y-55000000D01*
X108470000Y-50550000D02*
X108470000Y-56250000D01*
X110270000Y-49950000D02*
X109480000Y-49950000D01*
X111320000Y-51800000D02*
X111320000Y-53500000D01*
%TO.C,Y1*%
X116900000Y-55720000D02*
X113600000Y-55720000D01*
X113600000Y-55720000D02*
X113600000Y-59720000D01*
%TO.C,U2*%
X139210000Y-63100000D02*
X139210000Y-69110000D01*
X132390000Y-65350000D02*
X132390000Y-69110000D01*
X132390000Y-69110000D02*
X133650000Y-69110000D01*
X139210000Y-69110000D02*
X137950000Y-69110000D01*
%TO.C,U1*%
X128747500Y-55140000D02*
X129197500Y-55140000D01*
X121977500Y-62360000D02*
X121977500Y-61910000D01*
X121977500Y-55140000D02*
X121977500Y-55590000D01*
X128747500Y-62360000D02*
X129197500Y-62360000D01*
X129197500Y-62360000D02*
X129197500Y-61910000D01*
X122427500Y-55140000D02*
X121977500Y-55140000D01*
X122427500Y-62360000D02*
X121977500Y-62360000D01*
X121977500Y-55590000D02*
X120687500Y-55590000D01*
X129197500Y-55140000D02*
X129197500Y-55590000D01*
%TO.C,R5*%
X126246359Y-67780000D02*
X126553641Y-67780000D01*
X126246359Y-67020000D02*
X126553641Y-67020000D01*
%TO.C,R4*%
X124153641Y-67780000D02*
X123846359Y-67780000D01*
X124153641Y-67020000D02*
X123846359Y-67020000D01*
%TO.C,R3*%
X143220000Y-64153641D02*
X143220000Y-63846359D01*
X143980000Y-64153641D02*
X143980000Y-63846359D01*
%TO.C,R2*%
X134620000Y-56646359D02*
X134620000Y-56953641D01*
X135380000Y-56646359D02*
X135380000Y-56953641D01*
%TO.C,R1*%
X113620000Y-53753641D02*
X113620000Y-53446359D01*
X114380000Y-53753641D02*
X114380000Y-53446359D01*
%TO.C,J4*%
X121130000Y-69470000D02*
X128810000Y-69470000D01*
X119860000Y-72130000D02*
X118530000Y-72130000D01*
X128810000Y-72130000D02*
X128810000Y-69470000D01*
X121130000Y-72130000D02*
X121130000Y-69470000D01*
X118530000Y-72130000D02*
X118530000Y-70800000D01*
X121130000Y-72130000D02*
X128810000Y-72130000D01*
%TO.C,J3*%
X125730000Y-46730000D02*
X118050000Y-46730000D01*
X127000000Y-44070000D02*
X128330000Y-44070000D01*
X118050000Y-44070000D02*
X118050000Y-46730000D01*
X125730000Y-44070000D02*
X125730000Y-46730000D01*
X128330000Y-44070000D02*
X128330000Y-45400000D01*
X125730000Y-44070000D02*
X118050000Y-44070000D01*
%TO.C,J2*%
X138010000Y-46730000D02*
X130330000Y-46730000D01*
X139280000Y-44070000D02*
X140610000Y-44070000D01*
X130330000Y-44070000D02*
X130330000Y-46730000D01*
X138010000Y-44070000D02*
X138010000Y-46730000D01*
X140610000Y-44070000D02*
X140610000Y-45400000D01*
X138010000Y-44070000D02*
X130330000Y-44070000D01*
D10*
%TO.C,J1*%
X143200000Y-55600000D02*
X143200000Y-54600000D01*
X148900000Y-53550000D02*
X148900000Y-53250000D01*
X148900000Y-53250000D02*
X148750000Y-53250000D01*
X149350000Y-53550000D02*
X148900000Y-53550000D01*
X144950000Y-61550000D02*
X146350000Y-61550000D01*
X142775000Y-58475000D02*
X142775000Y-59200000D01*
X148900000Y-61550000D02*
X148900000Y-61250000D01*
X146350000Y-53250000D02*
X144950000Y-53250000D01*
X142775000Y-59200000D02*
X143200000Y-59200000D01*
X148750000Y-61550000D02*
X148900000Y-61550000D01*
X148900000Y-61250000D02*
X149350000Y-61250000D01*
X143200000Y-59200000D02*
X143200000Y-60200000D01*
D11*
%TO.C,FB1*%
X120290000Y-63437221D02*
X120290000Y-63762779D01*
X121310000Y-63437221D02*
X121310000Y-63762779D01*
%TO.C,D1*%
X142865000Y-65315000D02*
X142865000Y-67600000D01*
X144335000Y-65315000D02*
X142865000Y-65315000D01*
X144335000Y-67600000D02*
X144335000Y-65315000D01*
%TO.C,C13*%
X135538748Y-62335000D02*
X136061252Y-62335000D01*
X135538748Y-60865000D02*
X136061252Y-60865000D01*
%TO.C,C12*%
X141335000Y-67311252D02*
X141335000Y-66788748D01*
X139865000Y-67311252D02*
X139865000Y-66788748D01*
%TO.C,C11*%
X118110000Y-58827836D02*
X118110000Y-58612164D01*
X117390000Y-58827836D02*
X117390000Y-58612164D01*
%TO.C,C10*%
X118110000Y-56597836D02*
X118110000Y-56382164D01*
X117390000Y-56597836D02*
X117390000Y-56382164D01*
%TO.C,C9*%
X122892164Y-65110000D02*
X123107836Y-65110000D01*
X122892164Y-64390000D02*
X123107836Y-64390000D01*
%TO.C,C8*%
X118907836Y-64140000D02*
X118692164Y-64140000D01*
X118907836Y-64860000D02*
X118692164Y-64860000D01*
%TO.C,C7*%
X118907836Y-62890000D02*
X118692164Y-62890000D01*
X118907836Y-63610000D02*
X118692164Y-63610000D01*
%TO.C,C6*%
X119390000Y-59877836D02*
X119390000Y-59662164D01*
X120110000Y-59877836D02*
X120110000Y-59662164D01*
%TO.C,C5*%
X122859420Y-51510000D02*
X123140580Y-51510000D01*
X122859420Y-50490000D02*
X123140580Y-50490000D01*
%TO.C,C4*%
X119947500Y-55357836D02*
X119947500Y-55142164D01*
X119227500Y-55357836D02*
X119227500Y-55142164D01*
%TO.C,C3*%
X128507836Y-64240000D02*
X128292164Y-64240000D01*
X128507836Y-64960000D02*
X128292164Y-64960000D01*
%TO.C,C2*%
X131227500Y-56142164D02*
X131227500Y-56357836D01*
X131947500Y-56142164D02*
X131947500Y-56357836D01*
%TO.C,C1*%
X122892164Y-52390000D02*
X123107836Y-52390000D01*
X122892164Y-53110000D02*
X123107836Y-53110000D01*
%TD*%
M02*
