M48
; DRILL file {KiCad 7.0.5-1.fc38} date Pzt 26 Haz 2023 00:30:14
; FORMAT={-:-/ absolute / metric / decimal}
; #@! TF.CreationDate,2023-06-26T00:30:14+03:00
; #@! TF.GenerationSoftware,Kicad,Pcbnew,7.0.5-1.fc38
; #@! TF.FileFunction,MixedPlating,1,2
FMAT,2
METRIC
; #@! TA.AperFunction,Plated,PTH,ViaDrill
T1C0.300
; #@! TA.AperFunction,Plated,PTH,ComponentDrill
T2C0.550
; #@! TA.AperFunction,Plated,PTH,ComponentDrill
T3C0.850
; #@! TA.AperFunction,Plated,PTH,ComponentDrill
T4C1.000
; #@! TA.AperFunction,NonPlated,NPTH,ComponentDrill
T5C0.800
; #@! TA.AperFunction,NonPlated,NPTH,ComponentDrill
T6C0.900
; #@! TA.AperFunction,NonPlated,NPTH,ComponentDrill
T7C2.200
%
G90
G05
T1
X113.0Y-51.2
X114.4Y-60.2
X116.0Y-55.2
X117.8Y-55.2
X118.4Y-62.2
X118.4Y-65.4
X118.6Y-58.2
X119.6Y-53.8
X121.25Y-48.0
X121.25Y-49.75
X121.7Y-68.8
X122.8Y-59.6
X123.2Y-68.8
X123.8Y-50.0
X124.4Y-64.8
X126.5Y-66.4
X127.8Y-61.4
X127.899Y-66.4
X132.4Y-56.8
X137.6Y-65.8
X138.2Y-61.0
X138.2Y-62.0
X138.6Y-65.8
X142.2Y-56.2
X142.2Y-66.2
X144.8Y-63.4
T4
X119.38Y-45.4
X119.86Y-70.8
X121.92Y-45.4
X122.4Y-70.8
X124.46Y-45.4
X124.94Y-70.8
X127.0Y-45.4
X127.48Y-70.8
X131.66Y-45.4
X134.2Y-45.4
X136.74Y-45.4
X139.28Y-45.4
T5
X144.8Y-54.9
X144.8Y-59.9
T6
X109.87Y-51.9
X109.87Y-54.9
T7
X110.6Y-46.2
X110.6Y-70.2
X146.6Y-46.2
X146.6Y-70.2
T2
G00X147.225Y-53.525
M15
G01X147.875Y-53.525
M16
G05
G00X147.225Y-61.275
M15
G01X147.875Y-61.275
M16
G05
T3
G00X143.475Y-53.675
M15
G01X144.025Y-53.675
M16
G05
G00X143.475Y-61.125
M15
G01X144.025Y-61.125
M16
G05
T0
M30
