%TF.GenerationSoftware,KiCad,Pcbnew,7.0.5-1.fc38*%
%TF.CreationDate,2023-06-26T00:30:19+03:00*%
%TF.ProjectId,stm32,73746d33-322e-46b6-9963-61645f706362,1.0*%
%TF.SameCoordinates,Original*%
%TF.FileFunction,Legend,Bot*%
%TF.FilePolarity,Positive*%
%FSLAX46Y46*%
G04 Gerber Fmt 4.6, Leading zero omitted, Abs format (unit mm)*
G04 Created by KiCad (PCBNEW 7.0.5-1.fc38) date 2023-06-26 00:30:19*
%MOMM*%
%LPD*%
G01*
G04 APERTURE LIST*
%ADD10C,0.150000*%
G04 APERTURE END LIST*
D10*
X141463220Y-53869819D02*
X141463220Y-52869819D01*
X141034649Y-53869819D02*
X141034649Y-53346009D01*
X141034649Y-53346009D02*
X141082268Y-53250771D01*
X141082268Y-53250771D02*
X141177506Y-53203152D01*
X141177506Y-53203152D02*
X141320363Y-53203152D01*
X141320363Y-53203152D02*
X141415601Y-53250771D01*
X141415601Y-53250771D02*
X141463220Y-53298390D01*
X140701315Y-53203152D02*
X140320363Y-53203152D01*
X140558458Y-52869819D02*
X140558458Y-53726961D01*
X140558458Y-53726961D02*
X140510839Y-53822200D01*
X140510839Y-53822200D02*
X140415601Y-53869819D01*
X140415601Y-53869819D02*
X140320363Y-53869819D01*
X140129886Y-53203152D02*
X139748934Y-53203152D01*
X139987029Y-52869819D02*
X139987029Y-53726961D01*
X139987029Y-53726961D02*
X139939410Y-53822200D01*
X139939410Y-53822200D02*
X139844172Y-53869819D01*
X139844172Y-53869819D02*
X139748934Y-53869819D01*
X139415600Y-53203152D02*
X139415600Y-54203152D01*
X139415600Y-53250771D02*
X139320362Y-53203152D01*
X139320362Y-53203152D02*
X139129886Y-53203152D01*
X139129886Y-53203152D02*
X139034648Y-53250771D01*
X139034648Y-53250771D02*
X138987029Y-53298390D01*
X138987029Y-53298390D02*
X138939410Y-53393628D01*
X138939410Y-53393628D02*
X138939410Y-53679342D01*
X138939410Y-53679342D02*
X138987029Y-53774580D01*
X138987029Y-53774580D02*
X139034648Y-53822200D01*
X139034648Y-53822200D02*
X139129886Y-53869819D01*
X139129886Y-53869819D02*
X139320362Y-53869819D01*
X139320362Y-53869819D02*
X139415600Y-53822200D01*
X138558457Y-53822200D02*
X138463219Y-53869819D01*
X138463219Y-53869819D02*
X138272743Y-53869819D01*
X138272743Y-53869819D02*
X138177505Y-53822200D01*
X138177505Y-53822200D02*
X138129886Y-53726961D01*
X138129886Y-53726961D02*
X138129886Y-53679342D01*
X138129886Y-53679342D02*
X138177505Y-53584104D01*
X138177505Y-53584104D02*
X138272743Y-53536485D01*
X138272743Y-53536485D02*
X138415600Y-53536485D01*
X138415600Y-53536485D02*
X138510838Y-53488866D01*
X138510838Y-53488866D02*
X138558457Y-53393628D01*
X138558457Y-53393628D02*
X138558457Y-53346009D01*
X138558457Y-53346009D02*
X138510838Y-53250771D01*
X138510838Y-53250771D02*
X138415600Y-53203152D01*
X138415600Y-53203152D02*
X138272743Y-53203152D01*
X138272743Y-53203152D02*
X138177505Y-53250771D01*
X137701314Y-53774580D02*
X137653695Y-53822200D01*
X137653695Y-53822200D02*
X137701314Y-53869819D01*
X137701314Y-53869819D02*
X137748933Y-53822200D01*
X137748933Y-53822200D02*
X137701314Y-53774580D01*
X137701314Y-53774580D02*
X137701314Y-53869819D01*
X137701314Y-53250771D02*
X137653695Y-53298390D01*
X137653695Y-53298390D02*
X137701314Y-53346009D01*
X137701314Y-53346009D02*
X137748933Y-53298390D01*
X137748933Y-53298390D02*
X137701314Y-53250771D01*
X137701314Y-53250771D02*
X137701314Y-53346009D01*
X136510839Y-52822200D02*
X137367981Y-54107914D01*
X135463220Y-52822200D02*
X136320362Y-54107914D01*
X134701315Y-53203152D02*
X134701315Y-54012676D01*
X134701315Y-54012676D02*
X134748934Y-54107914D01*
X134748934Y-54107914D02*
X134796553Y-54155533D01*
X134796553Y-54155533D02*
X134891791Y-54203152D01*
X134891791Y-54203152D02*
X135034648Y-54203152D01*
X135034648Y-54203152D02*
X135129886Y-54155533D01*
X134701315Y-53822200D02*
X134796553Y-53869819D01*
X134796553Y-53869819D02*
X134987029Y-53869819D01*
X134987029Y-53869819D02*
X135082267Y-53822200D01*
X135082267Y-53822200D02*
X135129886Y-53774580D01*
X135129886Y-53774580D02*
X135177505Y-53679342D01*
X135177505Y-53679342D02*
X135177505Y-53393628D01*
X135177505Y-53393628D02*
X135129886Y-53298390D01*
X135129886Y-53298390D02*
X135082267Y-53250771D01*
X135082267Y-53250771D02*
X134987029Y-53203152D01*
X134987029Y-53203152D02*
X134796553Y-53203152D01*
X134796553Y-53203152D02*
X134701315Y-53250771D01*
X134225124Y-53869819D02*
X134225124Y-53203152D01*
X134225124Y-52869819D02*
X134272743Y-52917438D01*
X134272743Y-52917438D02*
X134225124Y-52965057D01*
X134225124Y-52965057D02*
X134177505Y-52917438D01*
X134177505Y-52917438D02*
X134225124Y-52869819D01*
X134225124Y-52869819D02*
X134225124Y-52965057D01*
X133891791Y-53203152D02*
X133510839Y-53203152D01*
X133748934Y-52869819D02*
X133748934Y-53726961D01*
X133748934Y-53726961D02*
X133701315Y-53822200D01*
X133701315Y-53822200D02*
X133606077Y-53869819D01*
X133606077Y-53869819D02*
X133510839Y-53869819D01*
X133177505Y-53869819D02*
X133177505Y-52869819D01*
X132748934Y-53869819D02*
X132748934Y-53346009D01*
X132748934Y-53346009D02*
X132796553Y-53250771D01*
X132796553Y-53250771D02*
X132891791Y-53203152D01*
X132891791Y-53203152D02*
X133034648Y-53203152D01*
X133034648Y-53203152D02*
X133129886Y-53250771D01*
X133129886Y-53250771D02*
X133177505Y-53298390D01*
X131844172Y-53203152D02*
X131844172Y-53869819D01*
X132272743Y-53203152D02*
X132272743Y-53726961D01*
X132272743Y-53726961D02*
X132225124Y-53822200D01*
X132225124Y-53822200D02*
X132129886Y-53869819D01*
X132129886Y-53869819D02*
X131987029Y-53869819D01*
X131987029Y-53869819D02*
X131891791Y-53822200D01*
X131891791Y-53822200D02*
X131844172Y-53774580D01*
X131367981Y-53869819D02*
X131367981Y-52869819D01*
X131367981Y-53250771D02*
X131272743Y-53203152D01*
X131272743Y-53203152D02*
X131082267Y-53203152D01*
X131082267Y-53203152D02*
X130987029Y-53250771D01*
X130987029Y-53250771D02*
X130939410Y-53298390D01*
X130939410Y-53298390D02*
X130891791Y-53393628D01*
X130891791Y-53393628D02*
X130891791Y-53679342D01*
X130891791Y-53679342D02*
X130939410Y-53774580D01*
X130939410Y-53774580D02*
X130987029Y-53822200D01*
X130987029Y-53822200D02*
X131082267Y-53869819D01*
X131082267Y-53869819D02*
X131272743Y-53869819D01*
X131272743Y-53869819D02*
X131367981Y-53822200D01*
X130463219Y-53774580D02*
X130415600Y-53822200D01*
X130415600Y-53822200D02*
X130463219Y-53869819D01*
X130463219Y-53869819D02*
X130510838Y-53822200D01*
X130510838Y-53822200D02*
X130463219Y-53774580D01*
X130463219Y-53774580D02*
X130463219Y-53869819D01*
X129558458Y-53822200D02*
X129653696Y-53869819D01*
X129653696Y-53869819D02*
X129844172Y-53869819D01*
X129844172Y-53869819D02*
X129939410Y-53822200D01*
X129939410Y-53822200D02*
X129987029Y-53774580D01*
X129987029Y-53774580D02*
X130034648Y-53679342D01*
X130034648Y-53679342D02*
X130034648Y-53393628D01*
X130034648Y-53393628D02*
X129987029Y-53298390D01*
X129987029Y-53298390D02*
X129939410Y-53250771D01*
X129939410Y-53250771D02*
X129844172Y-53203152D01*
X129844172Y-53203152D02*
X129653696Y-53203152D01*
X129653696Y-53203152D02*
X129558458Y-53250771D01*
X128987029Y-53869819D02*
X129082267Y-53822200D01*
X129082267Y-53822200D02*
X129129886Y-53774580D01*
X129129886Y-53774580D02*
X129177505Y-53679342D01*
X129177505Y-53679342D02*
X129177505Y-53393628D01*
X129177505Y-53393628D02*
X129129886Y-53298390D01*
X129129886Y-53298390D02*
X129082267Y-53250771D01*
X129082267Y-53250771D02*
X128987029Y-53203152D01*
X128987029Y-53203152D02*
X128844172Y-53203152D01*
X128844172Y-53203152D02*
X128748934Y-53250771D01*
X128748934Y-53250771D02*
X128701315Y-53298390D01*
X128701315Y-53298390D02*
X128653696Y-53393628D01*
X128653696Y-53393628D02*
X128653696Y-53679342D01*
X128653696Y-53679342D02*
X128701315Y-53774580D01*
X128701315Y-53774580D02*
X128748934Y-53822200D01*
X128748934Y-53822200D02*
X128844172Y-53869819D01*
X128844172Y-53869819D02*
X128987029Y-53869819D01*
X128225124Y-53869819D02*
X128225124Y-53203152D01*
X128225124Y-53298390D02*
X128177505Y-53250771D01*
X128177505Y-53250771D02*
X128082267Y-53203152D01*
X128082267Y-53203152D02*
X127939410Y-53203152D01*
X127939410Y-53203152D02*
X127844172Y-53250771D01*
X127844172Y-53250771D02*
X127796553Y-53346009D01*
X127796553Y-53346009D02*
X127796553Y-53869819D01*
X127796553Y-53346009D02*
X127748934Y-53250771D01*
X127748934Y-53250771D02*
X127653696Y-53203152D01*
X127653696Y-53203152D02*
X127510839Y-53203152D01*
X127510839Y-53203152D02*
X127415600Y-53250771D01*
X127415600Y-53250771D02*
X127367981Y-53346009D01*
X127367981Y-53346009D02*
X127367981Y-53869819D01*
X126177506Y-52822200D02*
X127034648Y-54107914D01*
X125415601Y-53869819D02*
X125415601Y-53346009D01*
X125415601Y-53346009D02*
X125463220Y-53250771D01*
X125463220Y-53250771D02*
X125558458Y-53203152D01*
X125558458Y-53203152D02*
X125748934Y-53203152D01*
X125748934Y-53203152D02*
X125844172Y-53250771D01*
X125415601Y-53822200D02*
X125510839Y-53869819D01*
X125510839Y-53869819D02*
X125748934Y-53869819D01*
X125748934Y-53869819D02*
X125844172Y-53822200D01*
X125844172Y-53822200D02*
X125891791Y-53726961D01*
X125891791Y-53726961D02*
X125891791Y-53631723D01*
X125891791Y-53631723D02*
X125844172Y-53536485D01*
X125844172Y-53536485D02*
X125748934Y-53488866D01*
X125748934Y-53488866D02*
X125510839Y-53488866D01*
X125510839Y-53488866D02*
X125415601Y-53441247D01*
X124939410Y-53203152D02*
X124939410Y-53869819D01*
X124939410Y-53298390D02*
X124891791Y-53250771D01*
X124891791Y-53250771D02*
X124796553Y-53203152D01*
X124796553Y-53203152D02*
X124653696Y-53203152D01*
X124653696Y-53203152D02*
X124558458Y-53250771D01*
X124558458Y-53250771D02*
X124510839Y-53346009D01*
X124510839Y-53346009D02*
X124510839Y-53869819D01*
X124034648Y-53869819D02*
X124034648Y-53203152D01*
X124034648Y-52869819D02*
X124082267Y-52917438D01*
X124082267Y-52917438D02*
X124034648Y-52965057D01*
X124034648Y-52965057D02*
X123987029Y-52917438D01*
X123987029Y-52917438D02*
X124034648Y-52869819D01*
X124034648Y-52869819D02*
X124034648Y-52965057D01*
X123415601Y-53869819D02*
X123510839Y-53822200D01*
X123510839Y-53822200D02*
X123558458Y-53726961D01*
X123558458Y-53726961D02*
X123558458Y-52869819D01*
X123129886Y-53203152D02*
X122891791Y-53869819D01*
X122891791Y-53869819D02*
X122653696Y-53203152D01*
X122129886Y-53298390D02*
X122225124Y-53250771D01*
X122225124Y-53250771D02*
X122272743Y-53203152D01*
X122272743Y-53203152D02*
X122320362Y-53107914D01*
X122320362Y-53107914D02*
X122320362Y-53060295D01*
X122320362Y-53060295D02*
X122272743Y-52965057D01*
X122272743Y-52965057D02*
X122225124Y-52917438D01*
X122225124Y-52917438D02*
X122129886Y-52869819D01*
X122129886Y-52869819D02*
X121939410Y-52869819D01*
X121939410Y-52869819D02*
X121844172Y-52917438D01*
X121844172Y-52917438D02*
X121796553Y-52965057D01*
X121796553Y-52965057D02*
X121748934Y-53060295D01*
X121748934Y-53060295D02*
X121748934Y-53107914D01*
X121748934Y-53107914D02*
X121796553Y-53203152D01*
X121796553Y-53203152D02*
X121844172Y-53250771D01*
X121844172Y-53250771D02*
X121939410Y-53298390D01*
X121939410Y-53298390D02*
X122129886Y-53298390D01*
X122129886Y-53298390D02*
X122225124Y-53346009D01*
X122225124Y-53346009D02*
X122272743Y-53393628D01*
X122272743Y-53393628D02*
X122320362Y-53488866D01*
X122320362Y-53488866D02*
X122320362Y-53679342D01*
X122320362Y-53679342D02*
X122272743Y-53774580D01*
X122272743Y-53774580D02*
X122225124Y-53822200D01*
X122225124Y-53822200D02*
X122129886Y-53869819D01*
X122129886Y-53869819D02*
X121939410Y-53869819D01*
X121939410Y-53869819D02*
X121844172Y-53822200D01*
X121844172Y-53822200D02*
X121796553Y-53774580D01*
X121796553Y-53774580D02*
X121748934Y-53679342D01*
X121748934Y-53679342D02*
X121748934Y-53488866D01*
X121748934Y-53488866D02*
X121796553Y-53393628D01*
X121796553Y-53393628D02*
X121844172Y-53346009D01*
X121844172Y-53346009D02*
X121939410Y-53298390D01*
M02*
