%TF.GenerationSoftware,KiCad,Pcbnew,7.0.5-1.fc38*%
%TF.CreationDate,2023-06-26T00:30:19+03:00*%
%TF.ProjectId,stm32,73746d33-322e-46b6-9963-61645f706362,1.0*%
%TF.SameCoordinates,Original*%
%TF.FileFunction,Paste,Top*%
%TF.FilePolarity,Positive*%
%FSLAX46Y46*%
G04 Gerber Fmt 4.6, Leading zero omitted, Abs format (unit mm)*
G04 Created by KiCad (PCBNEW 7.0.5-1.fc38) date 2023-06-26 00:30:19*
%MOMM*%
%LPD*%
G01*
G04 APERTURE LIST*
G04 Aperture macros list*
%AMRoundRect*
0 Rectangle with rounded corners*
0 $1 Rounding radius*
0 $2 $3 $4 $5 $6 $7 $8 $9 X,Y pos of 4 corners*
0 Add a 4 corners polygon primitive as box body*
4,1,4,$2,$3,$4,$5,$6,$7,$8,$9,$2,$3,0*
0 Add four circle primitives for the rounded corners*
1,1,$1+$1,$2,$3*
1,1,$1+$1,$4,$5*
1,1,$1+$1,$6,$7*
1,1,$1+$1,$8,$9*
0 Add four rect primitives between the rounded corners*
20,1,$1+$1,$2,$3,$4,$5,0*
20,1,$1+$1,$4,$5,$6,$7,0*
20,1,$1+$1,$6,$7,$8,$9,0*
20,1,$1+$1,$8,$9,$2,$3,0*%
G04 Aperture macros list end*
%ADD10R,0.800000X1.000000*%
%ADD11R,1.500000X0.700000*%
%ADD12R,1.200000X1.400000*%
%ADD13R,1.500000X2.000000*%
%ADD14R,3.800000X2.000000*%
%ADD15RoundRect,0.075000X-0.662500X-0.075000X0.662500X-0.075000X0.662500X0.075000X-0.662500X0.075000X0*%
%ADD16RoundRect,0.075000X-0.075000X-0.662500X0.075000X-0.662500X0.075000X0.662500X-0.075000X0.662500X0*%
%ADD17RoundRect,0.135000X-0.135000X-0.185000X0.135000X-0.185000X0.135000X0.185000X-0.135000X0.185000X0*%
%ADD18RoundRect,0.135000X0.135000X0.185000X-0.135000X0.185000X-0.135000X-0.185000X0.135000X-0.185000X0*%
%ADD19RoundRect,0.135000X0.185000X-0.135000X0.185000X0.135000X-0.185000X0.135000X-0.185000X-0.135000X0*%
%ADD20RoundRect,0.135000X-0.185000X0.135000X-0.185000X-0.135000X0.185000X-0.135000X0.185000X0.135000X0*%
%ADD21R,1.300000X0.450000*%
%ADD22RoundRect,0.218750X-0.256250X0.218750X-0.256250X-0.218750X0.256250X-0.218750X0.256250X0.218750X0*%
%ADD23RoundRect,0.250000X-0.250000X-0.475000X0.250000X-0.475000X0.250000X0.475000X-0.250000X0.475000X0*%
%ADD24RoundRect,0.250000X0.475000X-0.250000X0.475000X0.250000X-0.475000X0.250000X-0.475000X-0.250000X0*%
%ADD25RoundRect,0.140000X0.170000X-0.140000X0.170000X0.140000X-0.170000X0.140000X-0.170000X-0.140000X0*%
%ADD26RoundRect,0.140000X-0.140000X-0.170000X0.140000X-0.170000X0.140000X0.170000X-0.140000X0.170000X0*%
%ADD27RoundRect,0.140000X0.140000X0.170000X-0.140000X0.170000X-0.140000X-0.170000X0.140000X-0.170000X0*%
%ADD28RoundRect,0.225000X-0.225000X-0.250000X0.225000X-0.250000X0.225000X0.250000X-0.225000X0.250000X0*%
%ADD29RoundRect,0.140000X-0.170000X0.140000X-0.170000X-0.140000X0.170000X-0.140000X0.170000X0.140000X0*%
G04 APERTURE END LIST*
D10*
%TO.C,SW1*%
X110980000Y-57050000D03*
X108770000Y-49750000D03*
X108770000Y-57050000D03*
X110980000Y-49750000D03*
D11*
X111630000Y-51150000D03*
X111630000Y-54150000D03*
X111630000Y-55650000D03*
%TD*%
D12*
%TO.C,Y1*%
X114400000Y-56620000D03*
X114400000Y-58820000D03*
X116100000Y-58820000D03*
X116100000Y-56620000D03*
%TD*%
D13*
%TO.C,U2*%
X138100000Y-64050000D03*
D14*
X135800000Y-70350000D03*
D13*
X135800000Y-64050000D03*
X133500000Y-64050000D03*
%TD*%
D15*
%TO.C,U1*%
X121425000Y-56000000D03*
X121425000Y-56500000D03*
X121425000Y-57000000D03*
X121425000Y-57500000D03*
X121425000Y-58000000D03*
X121425000Y-58500000D03*
X121425000Y-59000000D03*
X121425000Y-59500000D03*
X121425000Y-60000000D03*
X121425000Y-60500000D03*
X121425000Y-61000000D03*
X121425000Y-61500000D03*
D16*
X122837500Y-62912500D03*
X123337500Y-62912500D03*
X123837500Y-62912500D03*
X124337500Y-62912500D03*
X124837500Y-62912500D03*
X125337500Y-62912500D03*
X125837500Y-62912500D03*
X126337500Y-62912500D03*
X126837500Y-62912500D03*
X127337500Y-62912500D03*
X127837500Y-62912500D03*
X128337500Y-62912500D03*
D15*
X129750000Y-61500000D03*
X129750000Y-61000000D03*
X129750000Y-60500000D03*
X129750000Y-60000000D03*
X129750000Y-59500000D03*
X129750000Y-59000000D03*
X129750000Y-58500000D03*
X129750000Y-58000000D03*
X129750000Y-57500000D03*
X129750000Y-57000000D03*
X129750000Y-56500000D03*
X129750000Y-56000000D03*
D16*
X128337500Y-54587500D03*
X127837500Y-54587500D03*
X127337500Y-54587500D03*
X126837500Y-54587500D03*
X126337500Y-54587500D03*
X125837500Y-54587500D03*
X125337500Y-54587500D03*
X124837500Y-54587500D03*
X124337500Y-54587500D03*
X123837500Y-54587500D03*
X123337500Y-54587500D03*
X122837500Y-54587500D03*
%TD*%
D17*
%TO.C,R5*%
X126910000Y-67400000D03*
X125890000Y-67400000D03*
%TD*%
D18*
%TO.C,R4*%
X124510000Y-67400000D03*
X123490000Y-67400000D03*
%TD*%
D19*
%TO.C,R3*%
X143600000Y-64510000D03*
X143600000Y-63490000D03*
%TD*%
D20*
%TO.C,R2*%
X135000000Y-57310000D03*
X135000000Y-56290000D03*
%TD*%
D19*
%TO.C,R1*%
X114000000Y-54110000D03*
X114000000Y-53090000D03*
%TD*%
D21*
%TO.C,J1*%
X143700000Y-58700000D03*
X143700000Y-58050000D03*
X143700000Y-57400000D03*
X143700000Y-56750000D03*
X143700000Y-56100000D03*
%TD*%
D22*
%TO.C,FB1*%
X120800000Y-62812500D03*
X120800000Y-64387500D03*
%TD*%
%TO.C,D1*%
X143600000Y-66012500D03*
X143600000Y-67587500D03*
%TD*%
D23*
%TO.C,C13*%
X134850000Y-61600000D03*
X136750000Y-61600000D03*
%TD*%
D24*
%TO.C,C12*%
X140600000Y-68000000D03*
X140600000Y-66100000D03*
%TD*%
D25*
%TO.C,C11*%
X117750000Y-59200000D03*
X117750000Y-58240000D03*
%TD*%
%TO.C,C10*%
X117750000Y-56970000D03*
X117750000Y-56010000D03*
%TD*%
D26*
%TO.C,C9*%
X122520000Y-64750000D03*
X123480000Y-64750000D03*
%TD*%
D27*
%TO.C,C8*%
X119280000Y-64500000D03*
X118320000Y-64500000D03*
%TD*%
%TO.C,C7*%
X119280000Y-63250000D03*
X118320000Y-63250000D03*
%TD*%
D25*
%TO.C,C6*%
X119750000Y-59290000D03*
X119750000Y-60250000D03*
%TD*%
D28*
%TO.C,C5*%
X122225000Y-51000000D03*
X123775000Y-51000000D03*
%TD*%
D25*
%TO.C,C4*%
X119587500Y-55730000D03*
X119587500Y-54770000D03*
%TD*%
D27*
%TO.C,C3*%
X128880000Y-64600000D03*
X127920000Y-64600000D03*
%TD*%
D29*
%TO.C,C2*%
X131587500Y-55770000D03*
X131587500Y-56730000D03*
%TD*%
D26*
%TO.C,C1*%
X123480000Y-52750000D03*
X122520000Y-52750000D03*
%TD*%
M02*
